<svg width="350" height="35" viewBox="0 0 350 35" fill="none" xmlns="http://www.w3.org/2000/svg">
<path d="M23.2657 32.0642V34.2722H0.561656V0.192154H22.8337V2.40015H3.00966V15.7922H20.3377V17.9042H3.00966V32.0642H23.2657ZM77.6163 34.2722V4.80015L64.1763 27.7922H62.6403L49.2003 4.80015V34.2722H46.7523V0.192154H49.2003L63.4083 24.5762L77.6163 0.192154H80.0643V34.2722H77.6163ZM160.019 25.4402C160.019 26.6882 159.779 27.8562 159.299 28.9442C158.819 30.0002 158.163 30.9282 157.331 31.7282C156.499 32.5282 155.523 33.1522 154.403 33.6002C153.283 34.0482 152.099 34.2722 150.851 34.2722H134.915V0.192154H150.803C151.987 0.192154 153.059 0.448154 154.019 0.960155C154.979 1.47215 155.795 2.14415 156.467 2.97616C157.139 3.77615 157.651 4.70415 158.003 5.76015C158.387 6.78415 158.579 7.82415 158.579 8.88015C158.579 10.6082 158.147 12.1922 157.283 13.6322C156.419 15.0722 155.219 16.1282 153.683 16.8002C155.635 17.3762 157.171 18.4642 158.291 20.0642C159.443 21.6322 160.019 23.4242 160.019 25.4402ZM157.571 25.1042C157.571 24.2082 157.411 23.3442 157.091 22.5122C156.771 21.6482 156.323 20.8962 155.747 20.2562C155.171 19.5842 154.483 19.0562 153.683 18.6722C152.915 18.2882 152.083 18.0962 151.187 18.0962H137.363V32.0642H150.851C151.811 32.0642 152.691 31.8722 153.491 31.4882C154.323 31.1042 155.027 30.5922 155.603 29.9522C156.211 29.2802 156.691 28.5282 157.043 27.6962C157.395 26.8642 157.571 26.0002 157.571 25.1042ZM137.363 2.40015V16.0322H149.843C150.771 16.0322 151.619 15.8402 152.387 15.4562C153.155 15.0722 153.811 14.5762 154.355 13.9682C154.931 13.3282 155.379 12.5922 155.699 11.7602C156.019 10.9282 156.179 10.0802 156.179 9.21616C156.179 8.28816 156.019 7.42416 155.699 6.62415C155.411 5.79215 154.995 5.07215 154.451 4.46415C153.939 3.82415 153.315 3.32815 152.579 2.97616C151.843 2.59215 151.027 2.40015 150.131 2.40015H137.363ZM183.496 34.2722V0.192154H197.656C199.096 0.192154 200.424 0.496154 201.64 1.10415C202.856 1.71215 203.896 2.52815 204.76 3.55215C205.656 4.54415 206.344 5.68015 206.824 6.96016C207.336 8.20815 207.592 9.47215 207.592 10.7522C207.592 12.0002 207.4 13.2162 207.016 14.4002C206.632 15.5522 206.088 16.5922 205.384 17.5202C204.68 18.4482 203.832 19.2162 202.84 19.8242C201.848 20.4322 200.76 20.8322 199.576 21.0242L208.072 34.2722H205.24L196.984 21.4082H185.944V34.2722H183.496ZM185.944 19.1522H197.896C198.984 19.1522 199.976 18.9122 200.872 18.4322C201.768 17.9522 202.536 17.3282 203.176 16.5602C203.816 15.7602 204.296 14.8642 204.616 13.8722C204.968 12.8482 205.144 11.8082 205.144 10.7522C205.144 9.66415 204.936 8.62415 204.52 7.63216C204.136 6.60816 203.592 5.71216 202.888 4.94416C202.216 4.17615 201.416 3.56815 200.488 3.12015C199.592 2.64015 198.616 2.40015 197.56 2.40015H185.944V19.1522ZM254.172 32.0642V34.2722H231.468V0.192154H253.74V2.40015H233.916V15.7922H251.244V17.9042H233.916V32.0642H254.172ZM276.507 0.192154L289.467 31.2002L302.427 0.192154H305.019L290.619 34.2722H288.363L273.915 0.192154H276.507ZM349.741 32.0642V34.2722H327.037V0.192154H349.309V2.40015H329.485V15.7922H346.813V17.9042H329.485V32.0642H349.741Z" fill="#2B2B2B"/>
</svg>
