<?xml version="1.0" encoding="UTF-8"?>
<svg id="Camada_2" data-name="Camada 2" xmlns="http://www.w3.org/2000/svg" viewBox="0 0 132.71 72.59">
  <defs>
    <style>
      .cls-1 {
        fill: #d1d811;
      }
    </style>
  </defs>
  <g id="Camada_7" data-name="Camada 7">
    <g>
      <path class="cls-1" d="m24.39,50.38h-9.59c-.76,0-1.58.8-1.77,1.79-1.24,6.21-.51,12.41,4.51,18.62.79.99,2.37,1.79,3.37,1.79h12.09c1,0,.59-.8-.68-1.79-7.89-6.21-9.04-12.41-7.09-18.62.31-.99-.02-1.79-.84-1.79h0Z"/>
      <path class="cls-1" d="m61.75,48.19c-.87,2.99-1.02,5.98.05,8.97.08.17-.04.35-.24.35h0c-2.07,0-4.07.43-5.73,1.25-.16.08-.37-.05-.39-.23-.49-3.2.51-6.39,2.36-9.59,1.22-1.92,4.31-2.5,3.95-.76Zm19.9-29.17h-13.52c-1.04,0-2.12.8-2.55,1.79-7.22,16.66-38.31,33.32-11.39,49.98,1.59.99,3.95,1.79,4.94,1.79h12.09c.99,0,.23-.8-1.38-1.79-1.84-1.13-1.76-1.8-.85-1.8.66,0,1.72.32,3.13,1.04,1,.51,2.05,1.01,3.16,1.52,1.39.63,2.8,1.04,3.49,1.04h13.34c1.28,0,0-1.36-2.06-2.55-13.3-7.41-17.05-14.81-16.05-22.22.85-7.41,6.45-14.81,8.31-22.22.47-1.85.71-3.69.58-5.54-.04-.63-.55-1.04-1.24-1.04t0,0Z"/>
      <path class="cls-1" d="m1.88.29C.9.29.02.71,0,1.71c0,4.03,0,8.06,0,12.09,0,.99,1.13,1.79,2.51,1.79,16.08,0,30.95,0,44.61,0,1.17,0,2.11.8,1.96,1.79-2.68,17.8-37.48,35.61-13.48,53.41,1.32.99,3.42,1.79,4.42,1.79h12.09c1,0,.28-.8-1.29-1.79-28.26-17.8,8.77-35.61,11.93-53.41.18-.99,1.05-1.79,2.11-1.79h0c4.98,0,9.96-.02,14.92.06,1.38.02,3.27.05,4.27-1.08.31-.36.53-.78.75-1.2,1.14-2.19,2.31-4.39,3.76-6.4.91-1.26,2.49-3.33,2.87-3.83.06-.07.11-.15.16-.23.64-1.11.25-2.65-1.02-2.65,0,0-3.52,0-5.05,0-2.02,0-3.67,0-5.69,0-2.41,0-4.82,0-7.22,0-2.7,0-5.41,0-8.11,0-2.9,0-5.81,0-8.71,0s-6.02,0-9.03,0-6.05,0-9.08,0-5.89,0-8.83.01c-2.77,0-5.54,0-8.31,0-2.5,0-5,0-7.51,0-2.14,0-4.28,0-6.42,0-1.58,0-3.15,0-4.73,0Z"/>
      <path class="cls-1" d="m130.83.29c-5.7,0-11.39-.3-17.08-.28-5.35.02-12.11-.47-16.78,2.62-3.56,2.36-6.25,5.89-8.09,9.75-3,6.29-3.65,13.37-6.18,19.87-2.76,7.12-7.36,15.96-4.14,23.62,2.38,5.65,7.55,9.58,12.52,12.86,4.25,2.8,8.37,3.8,13.4,3.81,1.76,0,3.53,0,5.29,0,7.02.02,14.04.04,21.06.04.97,0,1.78-.8,1.79-1.79v-12.09c0-.99-1.13-1.79-2.51-1.79-4.48,0-8.95,0-13.43-.01-3.51,0-6.99.01-10.5.06-1.71.02-3.48-.12-5.02-.88-4.61-2.28-5.44-7.55-4.8-12.19.41-2.98,1.48-5.8,2.2-8.71.85-3.44,1.28-4.72,1.72-8.23.25-1.99,1.43-6.16,2.44-7.94,1.17-2.06,3.18-3.91,5.68-3.91,11.08,0,15.2.5,23.15.5.6,0,1.08-.8,1.08-1.79V1.71c.02-.99-.78-1.41-1.79-1.41Z"/>
      <path class="cls-1" d="m122.26,32.3c-.77,2.64-1.61,5.27-2.38,7.91-.3,1.04-1.53,1.87-2.71,1.79h-.45c-.86.05-1.5-.36-1.59-1.03-.36-2.64-.41-5.27-.32-7.91.05-1.19,1.46-2.55,2.6-2.55h3.82c.86,0,1.32.8,1.04,1.79Zm9.25-13.27c-7.06,0-12.23.01-21.51.01-4.19,0-5.05,4.07-5.3,5.18-.99,4.44-1.23,6.11-2.23,10.49-.78,3.41-1.31,6.89-1.23,10.4.04,1.65-.02,3.38.48,4.97.34,1.09,1.01,2.13,2.02,2.68.72.39,1.55.5,2.37.57,4.33.4,8.69.11,13.03.12,2.06,0,4.11.02,6.17.02,1.77,0,3.73.39,5.48.03.55-.11,1.1-.38,1.42-.84.32-.45.4-1.03.45-1.59.18-2.07-.02-4.14-.02-6.21,0-2.35,0-4.71,0-7.06-.02,0-.05,0-.07,0,0-1.03,0-2.07,0-3.1h.06v-13.88c0-.99-.5-1.79-1.11-1.79Z"/>
      <path class="cls-1" d="m42.58,19.02c-12.43,0-25.79,0-40.1,0-1.37,0-2.48.8-2.48,1.79v49.98c-.02.99.78,1.8,1.8,1.8h12.09c1.01,0,1.15-.8.46-1.79-5.03-7.35-4.97-14.7-3.07-22.05.25-.99,1.12-1.79,1.91-1.79h12.8c.85,0,1.98-.8,2.59-1.79,4.94-8.11,12.85-16.23,15.62-24.34.34-.99-.43-1.79-1.61-1.79Zm-20.66,16.45c-2.79,0-5.58,0-8.38,0-1,0-1.57-.8-1.29-1.79.14-.46.27-.92.41-1.38.28-.99,1.42-1.79,2.54-1.79h9.22c1.11,0,1.58.8,1.04,1.79-.25.46-.5.92-.75,1.38-.55.99-1.81,1.79-2.81,1.79Z"/>
    </g>
  </g>
</svg>